<svg width="24" height="24" viewBox="0 0 24 24" fill="none" xmlns="http://www.w3.org/2000/svg"><rect width="24" height="24" fill="none" rx="0" ry="0"></rect><path fill-rule="evenodd" clip-rule="evenodd" d="M15 2.8C15 2.35817 15.3582 2 15.8 2H18.2C18.6418 2 19 2.35817 19 2.8V7.9L21.7867 9.85071C21.9204 9.94428 22 10.0972 22 10.2603V11.0397C22 11.4442 21.5447 11.6813 21.2133 11.4493L19 9.9V21.2C19 21.6418 18.6418 22 18.2 22H14.6041C14.1622 22 13.8041 21.6418 13.8041 21.2V14C13.8041 13.5582 13.4459 13.2 13.0041 13.2H11.0005C10.5587 13.2 10.2005 13.5582 10.2005 14V21.2C10.2005 21.6418 9.84234 22 9.40052 22H5.8C5.35817 22 5 21.6418 5 21.2V9.9L2.78673 11.4493C2.45534 11.6813 2 11.4442 2 11.0397V10.2603C2 10.0972 2.07961 9.94428 2.21327 9.85071L11.7133 3.20071C11.8854 3.0802 12.1146 3.0802 12.2867 3.20071L15 5.1V2.8ZM12.2867 5.20071L16.2 7.94V3.6C16.2 3.37909 16.3791 3.2 16.6 3.2H17.4C17.6209 3.2 17.8 3.37909 17.8 3.6V9.06V9.7V20.4C17.8 20.6209 17.6209 20.8 17.4 20.8H15.0025V13C15.0025 12.4477 14.5548 12 14.0025 12H10.0006C9.44833 12 9.00061 12.4477 9.00061 13V20.8H6.6C6.37909 20.8 6.2 20.6209 6.2 20.4V9.06L11.7133 5.20071C11.8854 5.0802 12.1146 5.0802 12.2867 5.20071Z" fill="#ffffff"></path></svg>